<svg xmlns="http://www.w3.org/2000/svg" viewBox="0 0 512 512"><path d="M384 64c-5.5 0-11.2.6-17 1.4C345 26.6 303.7 0 256 0s-89 26.6-111 65.4c-5.8-.9-11.5-1.4-17-1.4C57.4 64 0 121.4 0 192c0 46.1 24.3 87.6 64 110.5V464c0 26.5 21.5 48 48 48h288c26.5 0 48-21.5 48-48V302.5c39.7-22.9 64-64.3 64-110.5 0-70.6-57.4-128-128-128zm16 416H112c-8.8 0-16-7.2-16-16v-48h320v48c0 8.8-7.2 16-16 16zm25.1-201.6c-5.5 2.7-9.1 8.3-9.1 14.4V384H96v-91.2c0-6.2-3.5-11.8-9.1-14.4C53 262.2 32 229.1 32 192c0-52.9 43.1-96 96-96 1.4 0 3 .5 4.4.6-2.6 10.1-4.4 20.5-4.4 31.4 0 8.8 7.2 16 16 16s16-7.2 16-16c0-52.9 43.1-96 96-96s96 43.1 96 96c0 8.8 7.2 16 16 16s16-7.2 16-16c0-10.9-1.8-21.3-4.4-31.4 1.4-.1 3-.6 4.4-.6 52.9 0 96 43.1 96 96 0 37.1-21 70.2-54.9 86.4z" fill="#fff"/></svg>