<svg xmlns="http://www.w3.org/2000/svg" viewBox="0 0 512 512"><path d="M511.3 205.8c-.7-7.4-6.6-13.3-14.1-14.1-4.2-.4-102.8-9.1-160.3 48.4-12.5 12.5-21.8 26.9-28.8 41.8-11.5-47.2-32-86.3-60.2-114.5-34.7-34.7-86.1-57.8-148.6-66.7C52.8 94 16.5 97.4 15 97.5c-7.4.7-13.3 6.6-14 14.1-.1 1.5-3.5 37.8 3.2 84.3 9 62.6 32 114 66.7 148.6 34.7 34.7 86.1 57.8 148.6 66.7 23 3.3 43.6 4.2 58.6 4.2 13.6 0 33.5-.3 42.6-.3 32 0 98.8-5.7 142.2-49.1 57.5-57.3 48.8-156 48.4-160.2zM170.5 245c-6.1-6.1-16-6.1-22.1 0-6.1 6.1-6.1 16 0 22.1L265.3 384c-45.1-1.5-122.8-11.9-172.4-61.5C33.8 263.4 30.5 163.8 31.3 128c35.9-.9 135.3 2.3 194.5 61.6 49.4 49.4 59.9 127.2 61.4 172.3L170.5 245zm270.4 99c-27.5 27.5-68.9 36.3-98.7 38.9l68.8-68.8c6.1-6.1 6.1-16 0-22.1-6.1-6.1-16-6.1-22.1 0l-68.8 68.8c2.5-29.7 11.3-71.1 38.9-98.7 35.8-35.8 95.1-39.9 121.7-39.8.1 26.6-4 85.9-39.8 121.7z" fill="#fff"/></svg>